<svg id="visual" viewBox="0 0 960 540" width="960" height="540" xmlns="http://www.w3.org/2000/svg" xmlns:xlink="http://www.w3.org/1999/xlink" version="1.1"><rect x="0" y="0" width="960" height="540" fill="#73528c"></rect><defs><linearGradient id="grad1_0" x1="43.8%" y1="100%" x2="100%" y2="0%"><stop offset="14.444444444444446%" stop-color="#001122" stop-opacity="1"></stop><stop offset="85.55555555555554%" stop-color="#001122" stop-opacity="1"></stop></linearGradient></defs><defs><linearGradient id="grad1_1" x1="43.8%" y1="100%" x2="100%" y2="0%"><stop offset="14.444444444444446%" stop-color="#001122" stop-opacity="1"></stop><stop offset="85.55555555555554%" stop-color="#2e3359" stop-opacity="1"></stop></linearGradient></defs><defs><linearGradient id="grad1_2" x1="43.8%" y1="100%" x2="100%" y2="0%"><stop offset="14.444444444444446%" stop-color="#73528c" stop-opacity="1"></stop><stop offset="85.55555555555554%" stop-color="#2e3359" stop-opacity="1"></stop></linearGradient></defs><defs><linearGradient id="grad2_0" x1="0%" y1="100%" x2="56.3%" y2="0%"><stop offset="14.444444444444446%" stop-color="#001122" stop-opacity="1"></stop><stop offset="85.55555555555554%" stop-color="#001122" stop-opacity="1"></stop></linearGradient></defs><defs><linearGradient id="grad2_1" x1="0%" y1="100%" x2="56.3%" y2="0%"><stop offset="14.444444444444446%" stop-color="#2e3359" stop-opacity="1"></stop><stop offset="85.55555555555554%" stop-color="#001122" stop-opacity="1"></stop></linearGradient></defs><defs><linearGradient id="grad2_2" x1="0%" y1="100%" x2="56.3%" y2="0%"><stop offset="14.444444444444446%" stop-color="#2e3359" stop-opacity="1"></stop><stop offset="85.55555555555554%" stop-color="#73528c" stop-opacity="1"></stop></linearGradient></defs><g transform="translate(960, 540)"><path d="M-270 0C-255.7 -24.3 -241.3 -48.7 -233 -75.7C-224.7 -102.7 -222.5 -132.5 -206.3 -149.9C-190.1 -167.3 -160 -172.4 -138.7 -190.9C-117.5 -209.4 -105.1 -241.4 -83.4 -256.8C-61.8 -272.2 -30.9 -271.1 0 -270L0 0Z" fill="#4e4374"></path><path d="M-180 0C-170.4 -16.2 -160.9 -32.5 -155.3 -50.5C-149.8 -68.5 -148.3 -88.3 -137.5 -99.9C-126.7 -111.5 -106.7 -114.9 -92.5 -127.3C-78.3 -139.6 -70 -160.9 -55.6 -171.2C-41.2 -181.5 -20.6 -180.7 0 -180L0 0Z" fill="#14233d"></path><path d="M-90 0C-85.2 -8.1 -80.4 -16.2 -77.7 -25.2C-74.9 -34.2 -74.2 -44.2 -68.8 -50C-63.4 -55.8 -53.3 -57.5 -46.2 -63.6C-39.2 -69.8 -35 -80.5 -27.8 -85.6C-20.6 -90.7 -10.3 -90.4 0 -90L0 0Z" fill="#001122"></path></g><g transform="translate(0, 0)"><path d="M270 0C250.8 22.7 231.7 45.5 226.4 73.5C221 101.6 229.6 135 218.4 158.7C207.3 182.4 176.5 196.5 149.3 205.5C122.1 214.5 98.5 218.4 74.2 228.3C49.9 238.2 24.9 254.1 0 270L0 0Z" fill="#4e4374"></path><path d="M180 0C167.2 15.2 154.4 30.3 150.9 49C147.4 67.7 153 90 145.6 105.8C138.2 121.6 117.7 131 99.5 137C81.4 143 65.6 145.6 49.4 152.2C33.3 158.8 16.6 169.4 0 180L0 0Z" fill="#14233d"></path><path d="M90 0C83.6 7.6 77.2 15.2 75.5 24.5C73.7 33.9 76.5 45 72.8 52.9C69.1 60.8 58.8 65.5 49.8 68.5C40.7 71.5 32.8 72.8 24.7 76.1C16.6 79.4 8.3 84.7 0 90L0 0Z" fill="#001122"></path></g></svg>